PathFileType	4	(X/Y/Z)	./resultDataOpenSim/trcMotMarkerGrf/sub06/qtm-05-06.trc
DataRate	CameraRate	NumFrames	NumMarkers	Units	OrigDataRate	OrigDataStartFrame	OrigNumFrames
250.000000	250.000000	11	24	m	250.000000	196	521
Frame#	Time	L.Toe.Tip			R.Toe.Tip			L.Ankle.Lat			R.Ankle.Lat			L.Ankle.Med			R.Ankle.Med			L.Heel			R.Heel			L.Knee.Lat			R.Knee.Lat			L.Knee.Med			R.Knee.Med			L.Thigh.Upper			R.Thigh.Upper			L.ASIS			R.ASIS			V.Sacral			L.Acromium			R.Acromium			C7			L.Elbow			R.Elbow			L.Wrist.Lat			R.Wrist.Lat
		X1	Y1	Z1	X2	Y2	Z2	X3	Y3	Z3	X4	Y4	Z4	X5	Y5	Z5	X6	Y6	Z6	X7	Y7	Z7	X8	Y8	Z8	X9	Y9	Z9	X10	Y10	Z10	X11	Y11	Z11	X12	Y12	Z12	X13	Y13	Z13	X14	Y14	Z14	X15	Y15	Z15	X16	Y16	Z16	X17	Y17	Z17	X18	Y18	Z18	X19	Y19	Z19	X20	Y20	Z20	X21	Y21	Z21	X22	Y22	Z22	X23	Y23	Z23	X24	Y24	Z24

196	0.78	0.065275916	-0.065197864	-0.030052593	-0.60130986	0.077381938	0.11535969	-0.057706559	-0.034463096	-0.051383124	-0.60677309	0.21257121	0.13948492	-0.056967495	-0.020259485	0.037079759	-0.56496788	0.19612124	0.06043486	-0.13437499	-0.059114969	-0.0058027788	-0.6262493	0.2584238	0.07471872	0.037777509	0.32696432	-0.0795519	-0.2391801	0.27819766	0.20903425	0.020240749	0.32471102	0.040838244	-0.23737184	0.261946	0.074637819	-0.11544149	0.69287267	-0.13865489	-0.2236475	0.63545177	0.1892392	-0.065604512	0.7235685	-0.080858346	-0.11283855	0.69796753	0.15921557	-0.28043597	0.7841279	0.019269241	-0.16008636	1.1791628	-0.1707233	-0.17745257	1.1891001	0.19255173	-0.25083619	1.225573	0.0043045148	-0.26191876	0.88384189	-0.20344281	-0.21504941	0.87571383	0.29835079	-0.19613587	0.65676241	-0.26651107	0.013152973	0.77020186	0.29084613
197	0.784	0.06513197	-0.06519102	-0.030225987	-0.58500557	0.080010197	0.11730287	-0.057790492	-0.034553557	-0.051517769	-0.59063803	0.21557979	0.1397759	-0.05685034	-0.020236376	0.036979527	-0.5490814	0.19856226	0.060649786	-0.13445614	-0.059155662	-0.0057359525	-0.61066595	0.26085625	0.074495506	0.039216352	0.32580235	-0.080441584	-0.22406455	0.27835838	0.20988672	0.021559181	0.32357617	0.040032788	-0.22289946	0.2633247	0.07560458	-0.10938829	0.69460152	-0.13832414	-0.21743418	0.63639487	0.18866064	-0.060152327	0.72493609	-0.081125331	-0.10712108	0.69945764	0.15926256	-0.27465431	0.78555019	0.019753206	-0.1525192	1.1802772	-0.1707562	-0.17148123	1.1905416	0.19242811	-0.2441285	1.2269645	0.0038000192	-0.25294203	0.88415149	-0.20417186	-0.21062468	0.87720101	0.29705975	-0.18374288	0.65761883	-0.26612997	0.015811294	0.7677332	0.29187214
198	0.788	0.064993059	-0.065177535	-0.03039232	-0.56858238	0.082196419	0.11910778	-0.057881757	-0.034600098	-0.05162825	-0.57429095	0.21819998	0.14010385	-0.05674875	-0.020181245	0.03687332	-0.53307123	0.20087347	0.060899454	-0.1345296	-0.059193823	-0.0056742329	-0.59502642	0.2630614	0.07442656	0.040741607	0.32495621	-0.081126558	-0.20879671	0.27905991	0.21063256	0.022219694	0.3229109	0.039457236	-0.20835692	0.26487451	0.076414896	-0.10353983	0.69626876	-0.13810509	-0.21088163	0.63759249	0.18766087	-0.054762223	0.72648709	-0.081345889	-0.10148517	0.70104566	0.15935211	-0.2687699	0.7871356	0.019963277	-0.14500969	1.1815367	-0.17073849	-0.16567032	1.19216	0.19239373	-0.23746039	1.2285348	0.0033679558	-0.24396574	0.88458026	-0.20487013	-0.20637858	0.87879379	0.29574058	-0.17119401	0.65868246	-0.26564266	0.018273045	0.76542122	0.29291117
199	0.792	0.064852603	-0.065160383	-0.030556249	-0.55202668	0.084192423	0.12074388	-0.058000422	-0.034624145	-0.05172653	-0.55779998	0.22044651	0.14046359	-0.056672794	-0.020097765	0.036760799	-0.51695639	0.20304185	0.061200665	-0.13460403	-0.059229986	-0.0056229218	-0.57934269	0.26502287	0.074480005	0.0423094	0.32439503	-0.081637932	-0.19342177	0.28024042	0.21127401	0.022563603	0.3227564	0.039127214	-0.19379543	0.26661761	0.077005501	-0.097877767	0.69788311	-0.13798355	-0.20396431	0.63909698	0.18619715	-0.049410038	0.72818854	-0.081542813	-0.095946391	0.70270018	0.15948842	-0.26284475	0.78889114	0.019814359	-0.13757742	1.18294	-0.17066345	-0.16000036	1.1939417	0.19245023	-0.23084826	1.2302693	0.0030199844	-0.2349811	0.88512656	-0.20553086	-0.2023293	0.88048217	0.29436677	-0.15848584	0.65996522	-0.26503129	0.020430041	0.763265	0.29397472
200	0.796	0.064704996	-0.065140225	-0.030720844	-0.53519749	0.086207754	0.12215369	-0.058168907	-0.034635578	-0.051838736	-0.54127334	0.22236525	0.1408407	-0.056640386	-0.020010058	0.036654951	-0.50075163	0.20505742	0.061563793	-0.13468552	-0.059263834	-0.0055825811	-0.56364971	0.26674176	0.074630889	0.043862832	0.32404473	-0.081976628	-0.17800106	0.28183528	0.21181636	0.022805389	0.32300873	0.038983618	-0.17920807	0.26856779	0.077396839	-0.092383493	0.699453	-0.13794618	-0.19697446	0.64074886	0.18477703	-0.044081909	0.7299997	-0.081735521	-0.090460922	0.70441774	0.15965023	-0.25701253	0.7908142	0.019512338	-0.13024088	1.1844911	-0.17052676	-0.15445958	1.1958709	0.19259614	-0.2242995	1.2321362	0.002749711	-0.22598796	0.88579066	-0.20615345	-0.19842042	0.88227928	0.29294463	-0.14564422	0.66147222	-0.26429624	0.022316695	0.76127719	0.29505555
201	0.8	0.064551748	-0.06511497	-0.030883753	-0.51793455	0.088289166	0.1232897	-0.05837732	-0.034623643	-0.05197527	-0.52481607	0.22401129	0.1412199	-0.05669333	-0.019951399	0.036569706	-0.48442881	0.20689252	0.061913611	-0.1347743	-0.059296681	-0.0055499633	-0.54799078	0.26822759	0.074870776	0.045356174	0.32383903	-0.082134681	-0.16257928	0.28379194	0.21227206	0.022991186	0.32349567	0.03893806	-0.16454739	0.27071788	0.07767348	-0.087043669	0.70098184	-0.13798359	-0.1903556	0.64233092	0.18410106	-0.038802625	0.73188746	-0.081936434	-0.084973454	0.70621205	0.15979973	-0.25120444	0.79284826	0.019232297	-0.12302681	1.1861987	-0.17033931	-0.1490379	1.1979323	0.19282372	-0.21781265	1.2340983	0.0025459894	-0.21695314	0.88656259	-0.20680342	-0.19454018	0.88420992	0.2915138	-0.13272206	0.66319805	-0.26345716	0.024077095	0.75947923	0.29614024
202	0.804	0.064399652	-0.06508062	-0.031041584	-0.5001975	0.090308812	0.12418729	-0.058583586	-0.034571965	-0.05211037	-0.50851362	0.22540645	0.14158366	-0.05686333	-0.019937386	0.036501273	-0.46795163	0.20852688	0.062159702	-0.13486653	-0.05933046	-0.0055200278	-0.5324128	0.26947708	0.075194263	0.046741716	0.32373053	-0.082124243	-0.14718513	0.28606283	0.21265245	0.02307658	0.32405448	0.03892603	-0.14976698	0.2730552	0.07793828	-0.081848013	0.70246989	-0.1380886	-0.1842597	0.64386467	0.18429744	-0.033609046	0.73382208	-0.082151215	-0.079464532	0.70809419	0.15991095	-0.24516584	0.7949249	0.018972692	-0.11596597	1.1880687	-0.17012122	-0.14371545	1.2001086	0.19311842	-0.21138594	1.2361298	0.0024066848	-0.20782093	0.88742991	-0.20758436	-0.19059862	0.88628344	0.2901223	-0.11978984	0.66512764	-0.26254321	0.025788174	0.75787597	0.29722925
203	0.808	0.064255077	-0.065034667	-0.031191963	-0.48208982	0.092096101	0.12494105	-0.058757785	-0.034482393	-0.052206191	-0.4923794	0.22654317	0.14193587	-0.057103661	-0.019938612	0.036422654	-0.45136943	0.2100011	0.062393879	-0.13495787	-0.059365139	-0.0054905602	-0.5169343	0.27047132	0.075595664	0.047962437	0.32368569	-0.081983483	-0.13183229	0.28861603	0.21296253	0.023076203	0.32459784	0.038955784	-0.13487841	0.27559918	0.078238844	-0.076786427	0.70391676	-0.13825421	-0.17837583	0.64555013	0.1848319	-0.028484012	0.73576894	-0.082383137	-0.073935819	0.71006593	0.15997676	-0.23887237	0.79703981	0.018630408	-0.10907559	1.1900956	-0.16987397	-0.13845954	1.2023751	0.19346025	-0.20501832	1.2382174	0.002334583	-0.19861897	0.88840284	-0.20845513	-0.18658226	0.88848144	0.28880239	-0.10690709	0.6672426	-0.26158064	0.027425674	0.75645488	0.29832069
204	0.812	0.064121358	-0.064979942	-0.031329129	-0.46375182	0.093563458	0.12561575	-0.058903955	-0.034373597	-0.05224884	-0.47624964	0.22746496	0.14234565	-0.057302974	-0.01990092	0.03631563	-0.43480033	0.21138571	0.062854646	-0.13504723	-0.059398467	-0.0054643375	-0.5015422	0.27119627	0.076081898	0.04897988	0.32369558	-0.081751569	-0.11651123	0.29145285	0.21320302	0.023110953	0.32512833	0.039100364	-0.11994776	0.27839899	0.078516434	-0.071848314	0.70532234	-0.13847311	-0.17225598	0.64752133	0.18510508	-0.023358669	0.73769463	-0.082638557	-0.068388203	0.71212523	0.16000057	-0.2326086	0.79921911	0.018161403	-0.10235764	1.1922629	-0.16958053	-0.13322993	1.2047035	0.19382718	-0.19870523	1.2403507	0.0023262439	-0.18944717	0.88950633	-0.20924873	-0.18255107	0.89077074	0.28756157	-0.094102884	0.66952598	-0.26058701	0.028949294	0.75520294	0.29939174
205	0.816	0.063998891	-0.064924299	-0.031444664	-0.44525038	0.094704724	0.12623903	-0.059038612	-0.034261942	-0.052251073	-0.45986999	0.22827767	0.14290119	-0.057384847	-0.01979896	0.03620366	-0.41831876	0.21269994	0.063618289	-0.13513717	-0.059427872	-0.0054465547	-0.48621809	0.27165904	0.076668679	0.049787817	0.32377779	-0.081454516	-0.10120612	0.29459399	0.21337354	0.023290383	0.32567705	0.039418241	-0.10502338	0.2814716	0.078675996	-0.067023094	0.70668683	-0.13873794	-0.16576791	0.64979682	0.18494954	-0.018184235	0.73958118	-0.082923587	-0.062816525	0.71427439	0.15998806	-0.22666672	0.80144907	0.017753227	-0.095795213	1.1945476	-0.16923681	-0.12798932	1.2070706	0.19420083	-0.1924394	1.2425187	0.0023712574	-0.18033879	0.89074712	-0.20991349	-0.17859376	0.89311988	0.28639357	-0.08135812	0.67197069	-0.25955774	0.030342352	0.75411311	0.3004171
206	0.82	0.063885261	-0.064875407	-0.031534759	-0.42655553	0.095546337	0.12685002	-0.059173071	-0.034152839	-0.052234108	-0.44319268	0.2290178	0.1435899	-0.057363242	-0.019649405	0.036126663	-0.40193072	0.21390817	0.06447959	-0.1352319	-0.059452216	-0.0054445883	-0.47095012	0.27186622	0.077350149	0.050396341	0.32395473	-0.081109221	-0.08591881	0.29805114	0.21347121	0.023563192	0.32621671	0.039866308	-0.090096108	0.28477741	0.078754134	-0.062300464	0.70801049	-0.13904143	-0.15912928	0.65233078	0.18460991	-0.012966728	0.74143027	-0.083237287	-0.057210602	0.71652215	0.15994097	-0.22114833	0.80370136	0.017719487	-0.089343533	1.1969299	-0.16886729	-0.12271187	1.2094635	0.19456597	-0.18621349	1.244714	0.0024612331	-0.1712438	0.89211022	-0.21053898	-0.17475907	0.89550967	0.28529685	-0.068603794	0.67458797	-0.25845437	0.031608018	0.75318282	0.30139028
